<?xml version="1.0" encoding="UTF-8"?>
<svg xmlns="http://www.w3.org/2000/svg" xmlns:xlink="http://www.w3.org/1999/xlink" width="1920" height="1080" viewBox="0 0 1920 1080">
<defs>
<g>
<g id="glyph-0-0">
<path d="M 0.160156 -1.191406 C 0.167969 -1.304688 0.195312 -1.398438 0.242188 -1.46875 C 0.292969 -1.542969 0.355469 -1.601562 0.429688 -1.648438 C 0.503906 -1.691406 0.589844 -1.722656 0.683594 -1.742188 C 0.777344 -1.761719 0.875 -1.769531 0.96875 -1.769531 C 1.054688 -1.769531 1.144531 -1.765625 1.234375 -1.75 C 1.324219 -1.738281 1.402344 -1.714844 1.476562 -1.679688 C 1.550781 -1.644531 1.609375 -1.59375 1.65625 -1.53125 C 1.703125 -1.46875 1.726562 -1.382812 1.726562 -1.28125 L 1.726562 -0.382812 C 1.726562 -0.304688 1.730469 -0.230469 1.738281 -0.160156 C 1.75 -0.0898438 1.765625 -0.0351562 1.785156 0 L 1.304688 0 C 1.296875 -0.0273438 1.289062 -0.0546875 1.285156 -0.0820312 C 1.28125 -0.109375 1.277344 -0.136719 1.273438 -0.167969 C 1.199219 -0.0898438 1.109375 -0.0351562 1.007812 -0.00390625 C 0.90625 0.0273438 0.800781 0.0429688 0.691406 0.0429688 C 0.609375 0.0429688 0.535156 0.0351562 0.464844 0.0117188 C 0.394531 -0.0078125 0.328125 -0.0390625 0.277344 -0.078125 C 0.222656 -0.121094 0.183594 -0.175781 0.152344 -0.238281 C 0.121094 -0.304688 0.105469 -0.382812 0.105469 -0.46875 C 0.105469 -0.566406 0.125 -0.648438 0.160156 -0.710938 C 0.195312 -0.773438 0.238281 -0.824219 0.292969 -0.863281 C 0.347656 -0.902344 0.410156 -0.929688 0.476562 -0.949219 C 0.546875 -0.96875 0.617188 -0.980469 0.691406 -0.992188 C 0.761719 -1.003906 0.832031 -1.011719 0.898438 -1.019531 C 0.96875 -1.027344 1.03125 -1.035156 1.082031 -1.050781 C 1.136719 -1.0625 1.179688 -1.082031 1.210938 -1.109375 C 1.242188 -1.132812 1.253906 -1.171875 1.253906 -1.21875 C 1.253906 -1.269531 1.246094 -1.3125 1.226562 -1.339844 C 1.210938 -1.371094 1.1875 -1.394531 1.160156 -1.410156 C 1.132812 -1.429688 1.101562 -1.4375 1.066406 -1.445312 C 1.027344 -1.449219 0.988281 -1.453125 0.945312 -1.453125 C 0.851562 -1.453125 0.78125 -1.433594 0.726562 -1.394531 C 0.671875 -1.355469 0.640625 -1.285156 0.632812 -1.191406 Z M 1.253906 -0.84375 C 1.234375 -0.824219 1.207031 -0.8125 1.179688 -0.800781 C 1.148438 -0.792969 1.117188 -0.785156 1.082031 -0.777344 C 1.046875 -0.769531 1.011719 -0.765625 0.972656 -0.761719 C 0.933594 -0.757812 0.898438 -0.75 0.859375 -0.742188 C 0.824219 -0.734375 0.789062 -0.726562 0.753906 -0.714844 C 0.71875 -0.703125 0.691406 -0.691406 0.664062 -0.671875 C 0.640625 -0.652344 0.617188 -0.628906 0.601562 -0.601562 C 0.585938 -0.570312 0.578125 -0.535156 0.578125 -0.488281 C 0.578125 -0.445312 0.585938 -0.414062 0.601562 -0.382812 C 0.617188 -0.355469 0.640625 -0.332031 0.667969 -0.316406 C 0.695312 -0.296875 0.722656 -0.285156 0.761719 -0.28125 C 0.796875 -0.273438 0.832031 -0.269531 0.871094 -0.269531 C 0.964844 -0.269531 1.035156 -0.285156 1.085938 -0.316406 C 1.136719 -0.347656 1.175781 -0.386719 1.199219 -0.429688 C 1.222656 -0.472656 1.238281 -0.515625 1.246094 -0.558594 C 1.25 -0.605469 1.253906 -0.640625 1.253906 -0.667969 Z "/>
</g>
<g id="glyph-0-1">
<rect x="0" y="0" width="0" height="0" mask="url(#mask-0)"/>
</g>
</g>
<image id="source-675" x="0" y="0" width="0" height="0"/>
<mask id="mask-0">
<use xlink:href="#source-675"/>
</mask>
</defs>
<g fill="rgb(100%, 100%, 100%)" fill-opacity="1">
<use xlink:href="#glyph-0-0" x="30" y="23.25"/>
<use xlink:href="#glyph-0-1" x="32" y="23.25"/>
<use xlink:href="#glyph-0-0" x="33" y="23.25"/>
</g>
</svg>
