<?xml version="1.0" encoding="UTF-8"?>
<svg xmlns="http://www.w3.org/2000/svg" xmlns:xlink="http://www.w3.org/1999/xlink" width="1920" height="1080" viewBox="0 0 1920 1080">
<defs>
<g>
<g id="glyph-0-0">
<path d="M 0.277344 -2.15625 L 0.277344 0.820312 L 0.632812 0.820312 L 0.632812 -0.289062 L 0.640625 -0.289062 C 0.679688 -0.222656 0.730469 -0.171875 0.785156 -0.128906 C 0.84375 -0.0859375 0.902344 -0.0507812 0.964844 -0.0234375 C 1.03125 0 1.09375 0.0195312 1.160156 0.0273438 C 1.226562 0.0390625 1.285156 0.046875 1.335938 0.046875 C 1.5 0.046875 1.644531 0.015625 1.769531 -0.0429688 C 1.894531 -0.101562 1.996094 -0.179688 2.078125 -0.28125 C 2.160156 -0.382812 2.21875 -0.5 2.261719 -0.636719 C 2.300781 -0.773438 2.320312 -0.917969 2.320312 -1.070312 C 2.320312 -1.222656 2.300781 -1.367188 2.257812 -1.503906 C 2.214844 -1.640625 2.15625 -1.761719 2.074219 -1.863281 C 1.992188 -1.96875 1.886719 -2.050781 1.765625 -2.113281 C 1.640625 -2.175781 1.496094 -2.203125 1.328125 -2.203125 C 1.179688 -2.203125 1.042969 -2.175781 0.917969 -2.125 C 0.792969 -2.070312 0.699219 -1.980469 0.640625 -1.863281 L 0.632812 -1.863281 L 0.632812 -2.15625 Z M 1.945312 -1.097656 C 1.945312 -0.992188 1.933594 -0.886719 1.914062 -0.789062 C 1.890625 -0.6875 1.855469 -0.597656 1.804688 -0.519531 C 1.753906 -0.441406 1.6875 -0.378906 1.605469 -0.332031 C 1.523438 -0.285156 1.421875 -0.261719 1.300781 -0.261719 C 1.179688 -0.261719 1.074219 -0.285156 0.988281 -0.332031 C 0.902344 -0.378906 0.832031 -0.4375 0.777344 -0.511719 C 0.722656 -0.585938 0.683594 -0.675781 0.660156 -0.773438 C 0.632812 -0.871094 0.621094 -0.972656 0.621094 -1.078125 C 0.621094 -1.179688 0.632812 -1.277344 0.65625 -1.375 C 0.679688 -1.472656 0.71875 -1.558594 0.769531 -1.636719 C 0.824219 -1.710938 0.890625 -1.773438 0.976562 -1.820312 C 1.058594 -1.867188 1.160156 -1.890625 1.277344 -1.890625 C 1.390625 -1.890625 1.492188 -1.871094 1.578125 -1.824219 C 1.664062 -1.78125 1.730469 -1.722656 1.785156 -1.644531 C 1.839844 -1.570312 1.878906 -1.484375 1.90625 -1.390625 C 1.933594 -1.292969 1.945312 -1.195312 1.945312 -1.097656 Z "/>
</g>
<g id="glyph-0-1">
<path d="M 0.289062 -2.976562 L 0.289062 0 L 0.640625 0 L 0.640625 -2.976562 Z "/>
</g>
<g id="glyph-0-2">
<path d="M 2.175781 -0.0078125 C 2.113281 0.0273438 2.03125 0.046875 1.921875 0.046875 C 1.828125 0.046875 1.757812 0.0195312 1.703125 -0.03125 C 1.648438 -0.0820312 1.621094 -0.167969 1.621094 -0.285156 C 1.523438 -0.167969 1.410156 -0.0820312 1.28125 -0.03125 C 1.152344 0.0195312 1.011719 0.046875 0.863281 0.046875 C 0.765625 0.046875 0.671875 0.0351562 0.585938 0.0117188 C 0.5 -0.0117188 0.421875 -0.0429688 0.359375 -0.0898438 C 0.292969 -0.136719 0.242188 -0.199219 0.207031 -0.277344 C 0.167969 -0.355469 0.148438 -0.445312 0.148438 -0.554688 C 0.148438 -0.675781 0.171875 -0.777344 0.210938 -0.855469 C 0.253906 -0.933594 0.308594 -0.996094 0.378906 -1.042969 C 0.445312 -1.09375 0.523438 -1.128906 0.609375 -1.152344 C 0.699219 -1.179688 0.789062 -1.199219 0.878906 -1.214844 C 0.976562 -1.234375 1.070312 -1.25 1.15625 -1.261719 C 1.242188 -1.269531 1.320312 -1.285156 1.386719 -1.300781 C 1.453125 -1.320312 1.507812 -1.347656 1.546875 -1.382812 C 1.585938 -1.417969 1.605469 -1.464844 1.605469 -1.535156 C 1.605469 -1.613281 1.589844 -1.671875 1.558594 -1.722656 C 1.53125 -1.769531 1.492188 -1.804688 1.449219 -1.828125 C 1.402344 -1.855469 1.351562 -1.871094 1.292969 -1.878906 C 1.238281 -1.886719 1.179688 -1.890625 1.125 -1.890625 C 0.976562 -1.890625 0.851562 -1.863281 0.75 -1.804688 C 0.648438 -1.75 0.597656 -1.640625 0.585938 -1.484375 L 0.234375 -1.484375 C 0.238281 -1.617188 0.265625 -1.730469 0.316406 -1.820312 C 0.367188 -1.914062 0.433594 -1.988281 0.515625 -2.042969 C 0.601562 -2.101562 0.695312 -2.140625 0.800781 -2.167969 C 0.910156 -2.191406 1.023438 -2.203125 1.144531 -2.203125 C 1.242188 -2.203125 1.339844 -2.199219 1.433594 -2.183594 C 1.53125 -2.167969 1.617188 -2.140625 1.695312 -2.097656 C 1.773438 -2.054688 1.835938 -1.996094 1.882812 -1.917969 C 1.929688 -1.839844 1.953125 -1.738281 1.953125 -1.613281 L 1.953125 -0.503906 C 1.953125 -0.421875 1.960938 -0.359375 1.96875 -0.320312 C 1.980469 -0.28125 2.011719 -0.261719 2.066406 -0.261719 C 2.097656 -0.261719 2.132812 -0.269531 2.175781 -0.285156 Z M 1.601562 -1.113281 C 1.554688 -1.078125 1.496094 -1.054688 1.425781 -1.039062 C 1.351562 -1.023438 1.277344 -1.011719 1.199219 -1.003906 C 1.121094 -0.992188 1.039062 -0.980469 0.957031 -0.96875 C 0.878906 -0.957031 0.804688 -0.9375 0.742188 -0.910156 C 0.679688 -0.882812 0.625 -0.839844 0.585938 -0.789062 C 0.546875 -0.738281 0.523438 -0.667969 0.523438 -0.578125 C 0.523438 -0.519531 0.535156 -0.472656 0.558594 -0.429688 C 0.582031 -0.390625 0.613281 -0.359375 0.652344 -0.332031 C 0.691406 -0.308594 0.734375 -0.289062 0.785156 -0.277344 C 0.835938 -0.265625 0.886719 -0.261719 0.941406 -0.261719 C 1.058594 -0.261719 1.160156 -0.277344 1.242188 -0.308594 C 1.324219 -0.339844 1.394531 -0.382812 1.445312 -0.429688 C 1.5 -0.480469 1.539062 -0.53125 1.5625 -0.589844 C 1.585938 -0.648438 1.601562 -0.699219 1.601562 -0.75 Z "/>
</g>
<g id="glyph-0-3">
<path d="M 0.757812 -2.15625 L 0.757812 -2.800781 L 0.402344 -2.800781 L 0.402344 -2.15625 L 0.0390625 -2.15625 L 0.0390625 -1.84375 L 0.402344 -1.84375 L 0.402344 -0.472656 C 0.402344 -0.371094 0.414062 -0.289062 0.433594 -0.230469 C 0.453125 -0.167969 0.484375 -0.121094 0.523438 -0.0859375 C 0.5625 -0.0546875 0.617188 -0.03125 0.679688 -0.0195312 C 0.746094 -0.0078125 0.824219 0 0.917969 0 L 1.1875 0 L 1.1875 -0.3125 L 1.023438 -0.3125 C 0.96875 -0.3125 0.925781 -0.316406 0.890625 -0.320312 C 0.855469 -0.324219 0.828125 -0.332031 0.808594 -0.347656 C 0.789062 -0.359375 0.777344 -0.378906 0.769531 -0.402344 C 0.761719 -0.429688 0.757812 -0.460938 0.757812 -0.503906 L 0.757812 -1.84375 L 1.1875 -1.84375 L 1.1875 -2.15625 Z "/>
</g>
<g id="glyph-0-4">
<path d="M 0.414062 -1.84375 L 0.414062 0 L 0.765625 0 L 0.765625 -1.84375 L 1.183594 -1.84375 L 1.183594 -2.15625 L 0.765625 -2.15625 L 0.765625 -2.453125 C 0.765625 -2.546875 0.789062 -2.613281 0.835938 -2.644531 C 0.882812 -2.679688 0.953125 -2.695312 1.039062 -2.695312 C 1.070312 -2.695312 1.101562 -2.695312 1.136719 -2.691406 C 1.171875 -2.6875 1.207031 -2.679688 1.238281 -2.667969 L 1.238281 -2.976562 C 1.203125 -2.988281 1.167969 -2.996094 1.121094 -3 C 1.078125 -3.003906 1.042969 -3.007812 1.007812 -3.007812 C 0.8125 -3.007812 0.667969 -2.964844 0.566406 -2.875 C 0.464844 -2.785156 0.414062 -2.648438 0.414062 -2.476562 L 0.414062 -2.15625 L 0.0507812 -2.15625 L 0.0507812 -1.84375 Z "/>
</g>
<g id="glyph-0-5">
<path d="M 0.523438 -1.074219 C 0.523438 -1.207031 0.542969 -1.320312 0.578125 -1.421875 C 0.613281 -1.523438 0.660156 -1.609375 0.722656 -1.679688 C 0.78125 -1.75 0.855469 -1.800781 0.933594 -1.835938 C 1.015625 -1.875 1.105469 -1.890625 1.195312 -1.890625 C 1.289062 -1.890625 1.375 -1.875 1.457031 -1.835938 C 1.539062 -1.800781 1.609375 -1.75 1.671875 -1.679688 C 1.730469 -1.609375 1.78125 -1.523438 1.816406 -1.421875 C 1.851562 -1.320312 1.867188 -1.207031 1.867188 -1.074219 C 1.867188 -0.945312 1.847656 -0.828125 1.816406 -0.726562 C 1.78125 -0.625 1.730469 -0.539062 1.671875 -0.472656 C 1.609375 -0.40625 1.539062 -0.351562 1.457031 -0.316406 C 1.375 -0.28125 1.289062 -0.261719 1.195312 -0.261719 C 1.105469 -0.261719 1.015625 -0.28125 0.933594 -0.316406 C 0.851562 -0.351562 0.78125 -0.40625 0.722656 -0.472656 C 0.660156 -0.539062 0.613281 -0.625 0.578125 -0.726562 C 0.542969 -0.828125 0.523438 -0.945312 0.523438 -1.074219 Z M 0.148438 -1.074219 C 0.148438 -0.917969 0.171875 -0.769531 0.214844 -0.632812 C 0.261719 -0.496094 0.328125 -0.378906 0.417969 -0.277344 C 0.507812 -0.175781 0.617188 -0.0976562 0.746094 -0.0390625 C 0.875 0.015625 1.027344 0.046875 1.195312 0.046875 C 1.367188 0.046875 1.519531 0.015625 1.648438 -0.0390625 C 1.777344 -0.0976562 1.886719 -0.175781 1.976562 -0.277344 C 2.066406 -0.378906 2.128906 -0.496094 2.175781 -0.632812 C 2.21875 -0.769531 2.242188 -0.917969 2.242188 -1.074219 C 2.242188 -1.234375 2.21875 -1.382812 2.175781 -1.519531 C 2.132812 -1.65625 2.0625 -1.777344 1.976562 -1.878906 C 1.886719 -1.980469 1.777344 -2.058594 1.648438 -2.117188 C 1.519531 -2.175781 1.367188 -2.203125 1.195312 -2.203125 C 1.027344 -2.203125 0.875 -2.175781 0.746094 -2.117188 C 0.617188 -2.058594 0.503906 -1.980469 0.417969 -1.878906 C 0.328125 -1.777344 0.261719 -1.65625 0.214844 -1.519531 C 0.171875 -1.382812 0.148438 -1.234375 0.148438 -1.074219 Z "/>
</g>
<g id="glyph-0-6">
<path d="M 0.253906 -2.15625 L 0.253906 0 L 0.609375 0 L 0.609375 -0.957031 C 0.609375 -1.097656 0.621094 -1.21875 0.648438 -1.328125 C 0.675781 -1.433594 0.722656 -1.523438 0.785156 -1.601562 C 0.84375 -1.675781 0.925781 -1.730469 1.023438 -1.769531 C 1.125 -1.808594 1.246094 -1.828125 1.386719 -1.828125 L 1.386719 -2.203125 C 1.195312 -2.210938 1.039062 -2.171875 0.914062 -2.085938 C 0.789062 -2.003906 0.683594 -1.875 0.597656 -1.699219 L 0.585938 -1.699219 L 0.585938 -2.15625 Z "/>
</g>
<g id="glyph-0-7">
<path d="M 0.265625 -2.15625 L 0.265625 0 L 0.621094 0 L 0.621094 -1.339844 C 0.621094 -1.382812 0.632812 -1.433594 0.652344 -1.496094 C 0.671875 -1.558594 0.707031 -1.621094 0.753906 -1.679688 C 0.796875 -1.738281 0.859375 -1.789062 0.929688 -1.828125 C 1.003906 -1.871094 1.09375 -1.890625 1.195312 -1.890625 C 1.277344 -1.890625 1.34375 -1.878906 1.394531 -1.855469 C 1.445312 -1.832031 1.484375 -1.800781 1.515625 -1.757812 C 1.546875 -1.714844 1.570312 -1.664062 1.582031 -1.605469 C 1.59375 -1.546875 1.601562 -1.480469 1.601562 -1.414062 L 1.601562 0 L 1.953125 0 L 1.953125 -1.339844 C 1.953125 -1.507812 2.003906 -1.640625 2.105469 -1.742188 C 2.203125 -1.84375 2.34375 -1.890625 2.515625 -1.890625 C 2.601562 -1.890625 2.671875 -1.878906 2.726562 -1.855469 C 2.78125 -1.828125 2.824219 -1.796875 2.855469 -1.753906 C 2.886719 -1.710938 2.90625 -1.660156 2.917969 -1.601562 C 2.929688 -1.542969 2.933594 -1.480469 2.933594 -1.414062 L 2.933594 0 L 3.289062 0 L 3.289062 -1.578125 C 3.289062 -1.691406 3.269531 -1.785156 3.234375 -1.863281 C 3.199219 -1.945312 3.152344 -2.007812 3.089844 -2.058594 C 3.027344 -2.109375 2.953125 -2.144531 2.863281 -2.167969 C 2.777344 -2.191406 2.679688 -2.203125 2.570312 -2.203125 C 2.429688 -2.203125 2.300781 -2.171875 2.179688 -2.109375 C 2.0625 -2.042969 1.96875 -1.953125 1.894531 -1.835938 C 1.851562 -1.96875 1.773438 -2.066406 1.667969 -2.121094 C 1.558594 -2.175781 1.4375 -2.203125 1.304688 -2.203125 C 1 -2.203125 0.769531 -2.082031 0.609375 -1.835938 L 0.601562 -1.835938 L 0.601562 -2.15625 Z "/>
</g>
</g>
</defs>
<g fill="rgb(100%, 100%, 100%)" fill-opacity="1">
<use xlink:href="#glyph-0-0" x="30" y="23.966797"/>
<use xlink:href="#glyph-0-1" x="32" y="23.966797"/>
<use xlink:href="#glyph-0-2" x="33" y="23.966797"/>
<use xlink:href="#glyph-0-3" x="35" y="23.966797"/>
<use xlink:href="#glyph-0-4" x="36" y="23.966797"/>
<use xlink:href="#glyph-0-5" x="37" y="23.966797"/>
<use xlink:href="#glyph-0-6" x="39" y="23.966797"/>
<use xlink:href="#glyph-0-7" x="40" y="23.966797"/>
</g>
</svg>
