<?xml version="1.0" encoding="UTF-8"?>
<svg xmlns="http://www.w3.org/2000/svg" xmlns:xlink="http://www.w3.org/1999/xlink" width="1920" height="1080" viewBox="0 0 1920 1080">
<defs>
<g>
<g id="glyph-0-0">
<path d="M 1.613281 -1.367188 L 1.957031 -1.367188 C 1.945312 -1.484375 1.914062 -1.585938 1.863281 -1.675781 C 1.8125 -1.761719 1.75 -1.832031 1.675781 -1.890625 C 1.597656 -1.949219 1.511719 -1.988281 1.410156 -2.015625 C 1.308594 -2.042969 1.203125 -2.058594 1.089844 -2.058594 C 0.929688 -2.058594 0.792969 -2.03125 0.671875 -1.972656 C 0.554688 -1.917969 0.453125 -1.839844 0.375 -1.746094 C 0.296875 -1.648438 0.238281 -1.53125 0.199219 -1.402344 C 0.160156 -1.269531 0.140625 -1.128906 0.140625 -0.980469 C 0.140625 -0.828125 0.160156 -0.691406 0.199219 -0.566406 C 0.238281 -0.441406 0.300781 -0.332031 0.378906 -0.242188 C 0.457031 -0.152344 0.558594 -0.0820312 0.675781 -0.03125 C 0.792969 0.0195312 0.929688 0.0429688 1.082031 0.0429688 C 1.339844 0.0429688 1.539062 -0.0234375 1.691406 -0.160156 C 1.839844 -0.292969 1.933594 -0.484375 1.96875 -0.734375 L 1.628906 -0.734375 C 1.609375 -0.578125 1.550781 -0.457031 1.460938 -0.375 C 1.367188 -0.289062 1.242188 -0.246094 1.078125 -0.246094 C 0.972656 -0.246094 0.882812 -0.265625 0.808594 -0.308594 C 0.734375 -0.347656 0.671875 -0.402344 0.625 -0.472656 C 0.578125 -0.542969 0.546875 -0.621094 0.523438 -0.707031 C 0.5 -0.796875 0.488281 -0.886719 0.488281 -0.980469 C 0.488281 -1.082031 0.5 -1.179688 0.519531 -1.273438 C 0.542969 -1.367188 0.578125 -1.453125 0.625 -1.523438 C 0.671875 -1.597656 0.738281 -1.65625 0.816406 -1.699219 C 0.898438 -1.742188 0.996094 -1.765625 1.117188 -1.765625 C 1.257812 -1.765625 1.367188 -1.730469 1.449219 -1.660156 C 1.535156 -1.589844 1.589844 -1.492188 1.613281 -1.367188 Z "/>
</g>
<g id="glyph-0-1">
<path d="M 0.488281 -1.003906 C 0.488281 -1.125 0.507812 -1.234375 0.539062 -1.328125 C 0.570312 -1.421875 0.617188 -1.503906 0.671875 -1.566406 C 0.730469 -1.632812 0.796875 -1.679688 0.875 -1.714844 C 0.949219 -1.75 1.03125 -1.765625 1.117188 -1.765625 C 1.203125 -1.765625 1.28125 -1.75 1.359375 -1.714844 C 1.4375 -1.679688 1.503906 -1.632812 1.558594 -1.566406 C 1.617188 -1.503906 1.660156 -1.421875 1.695312 -1.328125 C 1.726562 -1.234375 1.742188 -1.125 1.742188 -1.003906 C 1.742188 -0.882812 1.726562 -0.773438 1.695312 -0.679688 C 1.660156 -0.585938 1.617188 -0.503906 1.558594 -0.441406 C 1.503906 -0.378906 1.4375 -0.328125 1.359375 -0.296875 C 1.28125 -0.261719 1.203125 -0.246094 1.117188 -0.246094 C 1.03125 -0.246094 0.949219 -0.261719 0.875 -0.296875 C 0.796875 -0.328125 0.730469 -0.378906 0.671875 -0.441406 C 0.617188 -0.503906 0.570312 -0.585938 0.539062 -0.679688 C 0.507812 -0.773438 0.488281 -0.882812 0.488281 -1.003906 Z M 0.140625 -1.003906 C 0.140625 -0.855469 0.160156 -0.71875 0.203125 -0.589844 C 0.242188 -0.464844 0.304688 -0.351562 0.390625 -0.257812 C 0.472656 -0.164062 0.574219 -0.0898438 0.695312 -0.0351562 C 0.816406 0.015625 0.957031 0.0429688 1.117188 0.0429688 C 1.277344 0.0429688 1.417969 0.015625 1.539062 -0.0351562 C 1.660156 -0.0898438 1.761719 -0.164062 1.84375 -0.257812 C 1.925781 -0.351562 1.988281 -0.464844 2.03125 -0.589844 C 2.070312 -0.71875 2.09375 -0.855469 2.09375 -1.003906 C 2.09375 -1.152344 2.070312 -1.289062 2.03125 -1.417969 C 1.988281 -1.546875 1.925781 -1.65625 1.84375 -1.753906 C 1.761719 -1.847656 1.660156 -1.921875 1.539062 -1.976562 C 1.417969 -2.03125 1.277344 -2.058594 1.117188 -2.058594 C 0.957031 -2.058594 0.816406 -2.03125 0.695312 -1.976562 C 0.574219 -1.921875 0.472656 -1.847656 0.390625 -1.753906 C 0.304688 -1.65625 0.242188 -1.546875 0.203125 -1.417969 C 0.160156 -1.289062 0.140625 -1.152344 0.140625 -1.003906 Z "/>
</g>
<g id="glyph-0-2">
<path d="M 0.488281 -0.988281 C 0.488281 -1.085938 0.5 -1.183594 0.519531 -1.277344 C 0.542969 -1.371094 0.574219 -1.453125 0.621094 -1.523438 C 0.667969 -1.597656 0.730469 -1.65625 0.808594 -1.699219 C 0.886719 -1.742188 0.980469 -1.765625 1.09375 -1.765625 C 1.207031 -1.765625 1.304688 -1.746094 1.382812 -1.703125 C 1.464844 -1.660156 1.53125 -1.601562 1.582031 -1.53125 C 1.632812 -1.460938 1.667969 -1.382812 1.691406 -1.289062 C 1.714844 -1.195312 1.726562 -1.101562 1.726562 -1.003906 C 1.726562 -0.910156 1.714844 -0.816406 1.695312 -0.726562 C 1.671875 -0.636719 1.636719 -0.554688 1.585938 -0.484375 C 1.539062 -0.414062 1.472656 -0.355469 1.394531 -0.3125 C 1.316406 -0.265625 1.222656 -0.246094 1.113281 -0.246094 C 1.007812 -0.246094 0.914062 -0.265625 0.835938 -0.308594 C 0.753906 -0.347656 0.691406 -0.40625 0.640625 -0.472656 C 0.589844 -0.542969 0.550781 -0.625 0.527344 -0.714844 C 0.503906 -0.804688 0.488281 -0.894531 0.488281 -0.988281 Z M 2.046875 0 L 2.046875 -2.777344 L 1.714844 -2.777344 L 1.714844 -1.742188 L 1.707031 -1.742188 C 1.671875 -1.800781 1.625 -1.851562 1.574219 -1.890625 C 1.519531 -1.933594 1.464844 -1.964844 1.402344 -1.988281 C 1.34375 -2.015625 1.285156 -2.03125 1.226562 -2.042969 C 1.167969 -2.054688 1.109375 -2.058594 1.058594 -2.058594 C 0.90625 -2.058594 0.769531 -2.03125 0.65625 -1.972656 C 0.539062 -1.917969 0.445312 -1.84375 0.367188 -1.75 C 0.289062 -1.652344 0.234375 -1.542969 0.195312 -1.414062 C 0.160156 -1.289062 0.140625 -1.152344 0.140625 -1.011719 C 0.140625 -0.867188 0.160156 -0.734375 0.199219 -0.605469 C 0.238281 -0.480469 0.296875 -0.367188 0.371094 -0.273438 C 0.449219 -0.175781 0.542969 -0.101562 0.660156 -0.0429688 C 0.773438 0.015625 0.910156 0.0429688 1.066406 0.0429688 C 1.207031 0.0429688 1.335938 0.0195312 1.449219 -0.03125 C 1.566406 -0.0820312 1.652344 -0.160156 1.707031 -0.273438 L 1.714844 -0.273438 L 1.714844 0 Z "/>
</g>
<g id="glyph-0-3">
<path d="M 0.597656 -2.371094 L 0.597656 -2.777344 L 0.269531 -2.777344 L 0.269531 -2.371094 Z M 0.269531 -2.011719 L 0.269531 0 L 0.597656 0 L 0.597656 -2.011719 Z "/>
</g>
<g id="glyph-0-4">
<path d="M 0.25 -2.011719 L 0.25 0 L 0.578125 0 L 0.578125 -1.136719 C 0.578125 -1.226562 0.59375 -1.308594 0.617188 -1.386719 C 0.640625 -1.464844 0.679688 -1.53125 0.726562 -1.585938 C 0.777344 -1.644531 0.839844 -1.6875 0.914062 -1.71875 C 0.988281 -1.75 1.074219 -1.765625 1.175781 -1.765625 C 1.300781 -1.765625 1.402344 -1.730469 1.472656 -1.65625 C 1.546875 -1.585938 1.582031 -1.484375 1.582031 -1.363281 L 1.582031 0 L 1.914062 0 L 1.914062 -1.324219 C 1.914062 -1.433594 1.902344 -1.53125 1.878906 -1.621094 C 1.859375 -1.710938 1.820312 -1.785156 1.765625 -1.851562 C 1.710938 -1.917969 1.640625 -1.96875 1.550781 -2.003906 C 1.464844 -2.039062 1.355469 -2.058594 1.222656 -2.058594 C 0.921875 -2.058594 0.707031 -1.9375 0.566406 -1.691406 L 0.558594 -1.691406 L 0.558594 -2.011719 Z "/>
</g>
<g id="glyph-0-5">
<path d="M 1.984375 -0.171875 L 1.984375 -2.011719 L 1.671875 -2.011719 L 1.671875 -1.722656 L 1.667969 -1.722656 C 1.609375 -1.835938 1.527344 -1.917969 1.417969 -1.972656 C 1.3125 -2.03125 1.195312 -2.058594 1.070312 -2.058594 C 0.894531 -2.058594 0.75 -2.023438 0.628906 -1.957031 C 0.511719 -1.890625 0.414062 -1.808594 0.34375 -1.707031 C 0.269531 -1.605469 0.21875 -1.488281 0.1875 -1.363281 C 0.15625 -1.238281 0.140625 -1.113281 0.140625 -0.996094 C 0.140625 -0.859375 0.160156 -0.726562 0.195312 -0.605469 C 0.234375 -0.480469 0.289062 -0.375 0.367188 -0.28125 C 0.441406 -0.191406 0.535156 -0.117188 0.644531 -0.0625 C 0.757812 -0.0078125 0.886719 0.0195312 1.039062 0.0195312 C 1.167969 0.0195312 1.289062 -0.0078125 1.40625 -0.0664062 C 1.523438 -0.125 1.609375 -0.21875 1.664062 -0.34375 L 1.671875 -0.34375 L 1.671875 -0.210938 C 1.671875 -0.0976562 1.660156 0.00390625 1.640625 0.0976562 C 1.617188 0.191406 1.582031 0.269531 1.53125 0.335938 C 1.484375 0.402344 1.421875 0.453125 1.347656 0.492188 C 1.269531 0.53125 1.179688 0.546875 1.070312 0.546875 C 1.015625 0.546875 0.957031 0.542969 0.898438 0.53125 C 0.839844 0.519531 0.785156 0.5 0.734375 0.472656 C 0.683594 0.449219 0.640625 0.414062 0.605469 0.375 C 0.570312 0.332031 0.550781 0.28125 0.546875 0.222656 L 0.21875 0.222656 C 0.222656 0.332031 0.25 0.421875 0.304688 0.496094 C 0.355469 0.574219 0.421875 0.632812 0.5 0.679688 C 0.578125 0.726562 0.667969 0.761719 0.765625 0.78125 C 0.863281 0.800781 0.957031 0.8125 1.050781 0.8125 C 1.371094 0.8125 1.609375 0.730469 1.757812 0.566406 C 1.910156 0.402344 1.984375 0.15625 1.984375 -0.171875 Z M 1.058594 -0.269531 C 0.949219 -0.269531 0.859375 -0.292969 0.785156 -0.335938 C 0.714844 -0.382812 0.65625 -0.441406 0.609375 -0.515625 C 0.566406 -0.589844 0.535156 -0.671875 0.515625 -0.761719 C 0.5 -0.851562 0.488281 -0.945312 0.488281 -1.035156 C 0.488281 -1.128906 0.5 -1.222656 0.523438 -1.3125 C 0.546875 -1.398438 0.582031 -1.476562 0.628906 -1.542969 C 0.675781 -1.609375 0.738281 -1.664062 0.8125 -1.707031 C 0.886719 -1.746094 0.980469 -1.765625 1.085938 -1.765625 C 1.1875 -1.765625 1.277344 -1.746094 1.351562 -1.703125 C 1.421875 -1.660156 1.480469 -1.605469 1.527344 -1.539062 C 1.574219 -1.46875 1.605469 -1.390625 1.625 -1.308594 C 1.644531 -1.222656 1.65625 -1.132812 1.65625 -1.046875 C 1.65625 -0.953125 1.644531 -0.859375 1.625 -0.765625 C 1.601562 -0.671875 1.566406 -0.589844 1.519531 -0.515625 C 1.472656 -0.441406 1.414062 -0.382812 1.335938 -0.335938 C 1.257812 -0.289062 1.167969 -0.269531 1.058594 -0.269531 Z "/>
</g>
</g>
</defs>
<g fill="rgb(100%, 100%, 100%)" fill-opacity="1">
<use xlink:href="#glyph-0-0" x="30" y="23.703125"/>
<use xlink:href="#glyph-0-1" x="32" y="23.703125"/>
<use xlink:href="#glyph-0-2" x="34" y="23.703125"/>
<use xlink:href="#glyph-0-3" x="36" y="23.703125"/>
<use xlink:href="#glyph-0-4" x="37" y="23.703125"/>
<use xlink:href="#glyph-0-5" x="39" y="23.703125"/>
</g>
</svg>
