<?xml version="1.0" encoding="UTF-8"?>
<svg xmlns="http://www.w3.org/2000/svg" xmlns:xlink="http://www.w3.org/1999/xlink" width="1920" height="1080" viewBox="0 0 1920 1080">
<defs>
<g>
<g id="glyph-0-0">
<path d="M 2.535156 -0.601562 L 2.535156 -2.414062 C 2.535156 -2.554688 2.507812 -2.675781 2.453125 -2.777344 C 2.398438 -2.882812 2.316406 -2.960938 2.203125 -3.019531 C 2.09375 -3.074219 1.957031 -3.101562 1.792969 -3.101562 C 1.640625 -3.101562 1.507812 -3.078125 1.394531 -3.023438 C 1.28125 -2.972656 1.191406 -2.902344 1.128906 -2.820312 C 1.0625 -2.734375 1.03125 -2.644531 1.03125 -2.546875 L 0.429688 -2.546875 C 0.429688 -2.671875 0.460938 -2.796875 0.527344 -2.921875 C 0.59375 -3.042969 0.6875 -3.15625 0.808594 -3.257812 C 0.929688 -3.359375 1.078125 -3.4375 1.25 -3.496094 C 1.421875 -3.558594 1.617188 -3.585938 1.828125 -3.585938 C 2.085938 -3.585938 2.3125 -3.542969 2.507812 -3.457031 C 2.703125 -3.371094 2.859375 -3.238281 2.96875 -3.066406 C 3.082031 -2.890625 3.136719 -2.671875 3.136719 -2.410156 L 3.136719 -0.769531 C 3.136719 -0.652344 3.148438 -0.527344 3.167969 -0.394531 C 3.1875 -0.261719 3.21875 -0.148438 3.261719 -0.0507812 L 3.261719 0 L 2.632812 0 C 2.601562 -0.0703125 2.578125 -0.164062 2.5625 -0.277344 C 2.542969 -0.394531 2.535156 -0.503906 2.535156 -0.601562 Z M 2.640625 -2.136719 L 2.648438 -1.710938 L 2.039062 -1.710938 C 1.867188 -1.710938 1.714844 -1.699219 1.578125 -1.671875 C 1.445312 -1.644531 1.332031 -1.605469 1.242188 -1.550781 C 1.148438 -1.496094 1.078125 -1.425781 1.03125 -1.347656 C 0.984375 -1.265625 0.960938 -1.167969 0.960938 -1.0625 C 0.960938 -0.949219 0.984375 -0.851562 1.035156 -0.757812 C 1.085938 -0.667969 1.160156 -0.59375 1.261719 -0.542969 C 1.363281 -0.488281 1.488281 -0.460938 1.632812 -0.460938 C 1.816406 -0.460938 1.980469 -0.5 2.121094 -0.578125 C 2.261719 -0.65625 2.375 -0.753906 2.460938 -0.867188 C 2.542969 -0.980469 2.589844 -1.089844 2.59375 -1.195312 L 2.851562 -0.90625 C 2.835938 -0.8125 2.796875 -0.714844 2.726562 -0.601562 C 2.660156 -0.492188 2.570312 -0.386719 2.460938 -0.285156 C 2.347656 -0.183594 2.214844 -0.101562 2.0625 -0.0351562 C 1.910156 0.03125 1.738281 0.0664062 1.546875 0.0664062 C 1.308594 0.0664062 1.097656 0.0195312 0.917969 -0.0742188 C 0.738281 -0.167969 0.601562 -0.292969 0.503906 -0.449219 C 0.40625 -0.609375 0.355469 -0.785156 0.355469 -0.980469 C 0.355469 -1.167969 0.390625 -1.335938 0.464844 -1.480469 C 0.539062 -1.625 0.644531 -1.746094 0.785156 -1.839844 C 0.921875 -1.9375 1.089844 -2.011719 1.285156 -2.0625 C 1.480469 -2.109375 1.699219 -2.136719 1.941406 -2.136719 Z "/>
</g>
<g id="glyph-0-1">
<rect x="0" y="0" width="0" height="0" mask="url(#mask-0)"/>
</g>
</g>
<image id="source-18" x="0" y="0" width="0" height="0"/>
<mask id="mask-0">
<use xlink:href="#source-18"/>
</mask>
</defs>
<g fill="rgb(100%, 100%, 100%)" fill-opacity="1">
<use xlink:href="#glyph-0-0" x="30" y="26.185547"/>
<use xlink:href="#glyph-0-1" x="34" y="26.185547"/>
<use xlink:href="#glyph-0-0" x="36" y="26.185547"/>
</g>
</svg>
