<?xml version="1.0" encoding="UTF-8"?>
<svg xmlns="http://www.w3.org/2000/svg" xmlns:xlink="http://www.w3.org/1999/xlink" width="1920" height="1080" viewBox="0 0 1920 1080">
<defs>
<g>
<g id="glyph-0-0">
<path d="M 0.226562 -1.691406 C 0.234375 -1.847656 0.277344 -1.980469 0.34375 -2.082031 C 0.414062 -2.1875 0.503906 -2.269531 0.609375 -2.332031 C 0.714844 -2.394531 0.835938 -2.441406 0.96875 -2.46875 C 1.105469 -2.496094 1.238281 -2.507812 1.375 -2.507812 C 1.496094 -2.507812 1.621094 -2.5 1.746094 -2.480469 C 1.871094 -2.464844 1.988281 -2.429688 2.09375 -2.378906 C 2.195312 -2.328125 2.28125 -2.261719 2.347656 -2.171875 C 2.414062 -2.082031 2.445312 -1.960938 2.445312 -1.8125 L 2.445312 -0.542969 C 2.445312 -0.433594 2.453125 -0.328125 2.464844 -0.226562 C 2.476562 -0.125 2.5 -0.0507812 2.53125 0 L 1.851562 0 C 1.839844 -0.0390625 1.828125 -0.078125 1.820312 -0.117188 C 1.8125 -0.15625 1.808594 -0.195312 1.804688 -0.234375 C 1.695312 -0.125 1.570312 -0.046875 1.425781 -0.00390625 C 1.28125 0.0390625 1.132812 0.0625 0.980469 0.0625 C 0.863281 0.0625 0.757812 0.046875 0.65625 0.0195312 C 0.554688 -0.0078125 0.46875 -0.0546875 0.390625 -0.113281 C 0.316406 -0.171875 0.257812 -0.25 0.214844 -0.339844 C 0.171875 -0.429688 0.152344 -0.539062 0.152344 -0.664062 C 0.152344 -0.804688 0.175781 -0.917969 0.222656 -1.007812 C 0.273438 -1.097656 0.335938 -1.167969 0.414062 -1.222656 C 0.492188 -1.277344 0.578125 -1.316406 0.675781 -1.34375 C 0.777344 -1.371094 0.875 -1.390625 0.976562 -1.40625 C 1.078125 -1.421875 1.175781 -1.4375 1.273438 -1.445312 C 1.371094 -1.453125 1.460938 -1.46875 1.535156 -1.488281 C 1.609375 -1.507812 1.671875 -1.535156 1.714844 -1.570312 C 1.757812 -1.605469 1.777344 -1.660156 1.777344 -1.726562 C 1.777344 -1.800781 1.765625 -1.859375 1.742188 -1.902344 C 1.71875 -1.945312 1.683594 -1.976562 1.644531 -2 C 1.605469 -2.023438 1.5625 -2.039062 1.507812 -2.046875 C 1.457031 -2.054688 1.402344 -2.058594 1.339844 -2.058594 C 1.207031 -2.058594 1.105469 -2.03125 1.03125 -1.972656 C 0.953125 -1.917969 0.910156 -1.824219 0.898438 -1.691406 Z M 1.777344 -1.195312 C 1.746094 -1.167969 1.710938 -1.148438 1.667969 -1.136719 C 1.625 -1.121094 1.582031 -1.109375 1.53125 -1.101562 C 1.484375 -1.089844 1.433594 -1.082031 1.378906 -1.078125 C 1.324219 -1.070312 1.273438 -1.0625 1.21875 -1.054688 C 1.167969 -1.042969 1.117188 -1.03125 1.070312 -1.015625 C 1.019531 -1 0.976562 -0.976562 0.941406 -0.953125 C 0.90625 -0.925781 0.875 -0.890625 0.855469 -0.851562 C 0.832031 -0.808594 0.820312 -0.757812 0.820312 -0.695312 C 0.820312 -0.636719 0.832031 -0.585938 0.855469 -0.542969 C 0.878906 -0.503906 0.90625 -0.46875 0.945312 -0.445312 C 0.984375 -0.421875 1.027344 -0.40625 1.078125 -0.398438 C 1.128906 -0.386719 1.179688 -0.382812 1.234375 -0.382812 C 1.367188 -0.382812 1.46875 -0.40625 1.539062 -0.449219 C 1.613281 -0.492188 1.664062 -0.546875 1.699219 -0.605469 C 1.734375 -0.667969 1.757812 -0.730469 1.765625 -0.792969 C 1.773438 -0.855469 1.777344 -0.90625 1.777344 -0.945312 Z "/>
</g>
<g id="glyph-0-1">
<rect x="0" y="0" width="0" height="0" mask="url(#mask-0)"/>
</g>
</g>
<image id="source-337" x="0" y="0" width="0" height="0"/>
<mask id="mask-0">
<use xlink:href="#source-337"/>
</mask>
</defs>
<g fill="rgb(100%, 100%, 100%)" fill-opacity="1">
<use xlink:href="#glyph-0-0" x="30" y="24.604492"/>
<use xlink:href="#glyph-0-1" x="33" y="24.604492"/>
<use xlink:href="#glyph-0-0" x="34" y="24.604492"/>
</g>
</svg>
