<?xml version="1.0" encoding="UTF-8"?>
<svg xmlns="http://www.w3.org/2000/svg" xmlns:xlink="http://www.w3.org/1999/xlink" width="1920" height="1080" viewBox="0 0 1920 1080">
<defs>
<g>
<g id="glyph-0-0">
<path d="M 0.832031 -1.121094 L 0.113281 -1.121094 C 0.109375 -0.910156 0.148438 -0.730469 0.226562 -0.582031 C 0.304688 -0.429688 0.410156 -0.304688 0.546875 -0.207031 C 0.679688 -0.109375 0.832031 -0.0390625 1.007812 0.0078125 C 1.183594 0.0546875 1.363281 0.0742188 1.550781 0.0742188 C 1.78125 0.0742188 1.980469 0.046875 2.15625 -0.00390625 C 2.332031 -0.0585938 2.476562 -0.132812 2.59375 -0.230469 C 2.710938 -0.324219 2.800781 -0.4375 2.863281 -0.570312 C 2.921875 -0.703125 2.953125 -0.847656 2.953125 -1 C 2.953125 -1.191406 2.910156 -1.34375 2.832031 -1.464844 C 2.75 -1.585938 2.65625 -1.683594 2.546875 -1.757812 C 2.4375 -1.828125 2.324219 -1.882812 2.210938 -1.914062 C 2.101562 -1.949219 2.011719 -1.972656 1.949219 -1.984375 C 1.738281 -2.039062 1.570312 -2.082031 1.4375 -2.117188 C 1.308594 -2.152344 1.203125 -2.183594 1.132812 -2.21875 C 1.058594 -2.253906 1.007812 -2.292969 0.980469 -2.332031 C 0.957031 -2.375 0.945312 -2.425781 0.945312 -2.492188 C 0.945312 -2.566406 0.960938 -2.625 0.992188 -2.671875 C 1.023438 -2.71875 1.0625 -2.757812 1.113281 -2.792969 C 1.160156 -2.824219 1.214844 -2.84375 1.273438 -2.855469 C 1.335938 -2.871094 1.394531 -2.875 1.453125 -2.875 C 1.546875 -2.875 1.628906 -2.867188 1.707031 -2.851562 C 1.785156 -2.835938 1.851562 -2.808594 1.914062 -2.773438 C 1.972656 -2.734375 2.019531 -2.683594 2.058594 -2.617188 C 2.09375 -2.550781 2.113281 -2.46875 2.121094 -2.367188 L 2.839844 -2.367188 C 2.839844 -2.5625 2.800781 -2.726562 2.726562 -2.863281 C 2.652344 -3 2.554688 -3.113281 2.425781 -3.203125 C 2.300781 -3.289062 2.15625 -3.355469 1.996094 -3.394531 C 1.832031 -3.433594 1.664062 -3.453125 1.488281 -3.453125 C 1.335938 -3.453125 1.183594 -3.433594 1.035156 -3.390625 C 0.882812 -3.351562 0.746094 -3.285156 0.628906 -3.203125 C 0.507812 -3.117188 0.410156 -3.011719 0.335938 -2.882812 C 0.261719 -2.753906 0.226562 -2.605469 0.226562 -2.433594 C 0.226562 -2.277344 0.253906 -2.144531 0.3125 -2.039062 C 0.371094 -1.929688 0.449219 -1.839844 0.542969 -1.765625 C 0.636719 -1.695312 0.746094 -1.636719 0.863281 -1.589844 C 0.984375 -1.542969 1.105469 -1.503906 1.234375 -1.472656 C 1.355469 -1.4375 1.476562 -1.40625 1.597656 -1.378906 C 1.714844 -1.351562 1.824219 -1.316406 1.917969 -1.28125 C 2.011719 -1.242188 2.089844 -1.195312 2.144531 -1.136719 C 2.203125 -1.082031 2.234375 -1.007812 2.234375 -0.917969 C 2.234375 -0.832031 2.210938 -0.761719 2.167969 -0.707031 C 2.125 -0.652344 2.070312 -0.609375 2.003906 -0.574219 C 1.9375 -0.542969 1.867188 -0.523438 1.789062 -0.511719 C 1.714844 -0.5 1.644531 -0.496094 1.578125 -0.496094 C 1.480469 -0.496094 1.386719 -0.507812 1.292969 -0.53125 C 1.203125 -0.554688 1.125 -0.589844 1.054688 -0.640625 C 0.988281 -0.6875 0.933594 -0.753906 0.894531 -0.832031 C 0.851562 -0.910156 0.832031 -1.007812 0.832031 -1.121094 Z "/>
</g>
<g id="glyph-0-1">
<path d="M 1.898438 -1.484375 L 0.808594 -1.484375 C 0.8125 -1.53125 0.820312 -1.582031 0.839844 -1.644531 C 0.855469 -1.703125 0.886719 -1.761719 0.929688 -1.8125 C 0.972656 -1.867188 1.027344 -1.910156 1.097656 -1.949219 C 1.167969 -1.984375 1.257812 -2.003906 1.363281 -2.003906 C 1.527344 -2.003906 1.652344 -1.957031 1.730469 -1.871094 C 1.8125 -1.78125 1.867188 -1.652344 1.898438 -1.484375 Z M 0.808594 -1.058594 L 2.570312 -1.058594 C 2.582031 -1.246094 2.566406 -1.429688 2.523438 -1.601562 C 2.476562 -1.773438 2.40625 -1.929688 2.308594 -2.0625 C 2.207031 -2.199219 2.082031 -2.308594 1.925781 -2.386719 C 1.773438 -2.46875 1.589844 -2.507812 1.382812 -2.507812 C 1.199219 -2.507812 1.027344 -2.476562 0.875 -2.410156 C 0.722656 -2.34375 0.59375 -2.25 0.480469 -2.136719 C 0.371094 -2.023438 0.285156 -1.886719 0.226562 -1.726562 C 0.167969 -1.570312 0.136719 -1.402344 0.136719 -1.21875 C 0.136719 -1.03125 0.167969 -0.855469 0.222656 -0.699219 C 0.28125 -0.542969 0.363281 -0.40625 0.472656 -0.292969 C 0.578125 -0.179688 0.710938 -0.09375 0.863281 -0.03125 C 1.019531 0.03125 1.191406 0.0625 1.382812 0.0625 C 1.660156 0.0625 1.898438 0 2.09375 -0.128906 C 2.289062 -0.253906 2.433594 -0.460938 2.527344 -0.753906 L 1.9375 -0.753906 C 1.914062 -0.679688 1.855469 -0.609375 1.757812 -0.539062 C 1.660156 -0.472656 1.542969 -0.4375 1.40625 -0.4375 C 1.21875 -0.4375 1.074219 -0.488281 0.972656 -0.585938 C 0.871094 -0.683594 0.816406 -0.839844 0.808594 -1.058594 Z "/>
</g>
<g id="glyph-0-2">
<path d="M 1.917969 -1.582031 L 2.574219 -1.582031 C 2.566406 -1.738281 2.527344 -1.875 2.460938 -1.992188 C 2.394531 -2.105469 2.308594 -2.203125 2.203125 -2.277344 C 2.097656 -2.355469 1.976562 -2.414062 1.84375 -2.449219 C 1.710938 -2.488281 1.570312 -2.507812 1.425781 -2.507812 C 1.226562 -2.507812 1.050781 -2.476562 0.898438 -2.410156 C 0.742188 -2.34375 0.613281 -2.25 0.503906 -2.132812 C 0.398438 -2.015625 0.316406 -1.875 0.261719 -1.710938 C 0.207031 -1.550781 0.179688 -1.375 0.179688 -1.183594 C 0.179688 -1.003906 0.210938 -0.835938 0.269531 -0.683594 C 0.328125 -0.53125 0.414062 -0.398438 0.519531 -0.289062 C 0.625 -0.179688 0.757812 -0.09375 0.910156 -0.03125 C 1.0625 0.03125 1.230469 0.0625 1.410156 0.0625 C 1.734375 0.0625 2.003906 -0.0234375 2.210938 -0.195312 C 2.417969 -0.363281 2.542969 -0.609375 2.589844 -0.933594 L 1.941406 -0.933594 C 1.917969 -0.785156 1.863281 -0.664062 1.777344 -0.574219 C 1.691406 -0.484375 1.566406 -0.4375 1.40625 -0.4375 C 1.304688 -0.4375 1.214844 -0.460938 1.144531 -0.511719 C 1.070312 -0.558594 1.011719 -0.617188 0.96875 -0.691406 C 0.925781 -0.765625 0.898438 -0.847656 0.878906 -0.941406 C 0.859375 -1.03125 0.851562 -1.121094 0.851562 -1.210938 C 0.851562 -1.300781 0.859375 -1.390625 0.878906 -1.484375 C 0.898438 -1.578125 0.929688 -1.664062 0.976562 -1.742188 C 1.019531 -1.816406 1.078125 -1.878906 1.152344 -1.929688 C 1.226562 -1.976562 1.316406 -2.003906 1.421875 -2.003906 C 1.707031 -2.003906 1.875 -1.863281 1.917969 -1.582031 Z "/>
</g>
<g id="glyph-0-3">
<path d="M 0.253906 -2.441406 L 0.253906 0 L 0.925781 0 L 0.925781 -1.101562 C 0.925781 -1.210938 0.9375 -1.3125 0.957031 -1.40625 C 0.980469 -1.5 1.019531 -1.585938 1.070312 -1.65625 C 1.121094 -1.726562 1.191406 -1.78125 1.273438 -1.824219 C 1.359375 -1.863281 1.464844 -1.882812 1.585938 -1.882812 C 1.628906 -1.882812 1.671875 -1.882812 1.714844 -1.878906 C 1.757812 -1.875 1.796875 -1.867188 1.828125 -1.859375 L 1.828125 -2.484375 C 1.773438 -2.5 1.726562 -2.507812 1.679688 -2.507812 C 1.597656 -2.507812 1.515625 -2.496094 1.4375 -2.46875 C 1.359375 -2.445312 1.28125 -2.410156 1.214844 -2.363281 C 1.144531 -2.316406 1.082031 -2.261719 1.03125 -2.199219 C 0.976562 -2.132812 0.933594 -2.0625 0.902344 -1.988281 L 0.894531 -1.988281 L 0.894531 -2.441406 Z "/>
</g>
<g id="glyph-0-4">
<path d="M 1.105469 -2.441406 L 1.105469 -3.171875 L 0.433594 -3.171875 L 0.433594 -2.441406 L 0.0273438 -2.441406 L 0.0273438 -1.992188 L 0.433594 -1.992188 L 0.433594 -0.550781 C 0.433594 -0.429688 0.453125 -0.332031 0.496094 -0.253906 C 0.535156 -0.179688 0.59375 -0.121094 0.664062 -0.0820312 C 0.734375 -0.0390625 0.816406 -0.0117188 0.910156 0.00390625 C 1.003906 0.015625 1.101562 0.0234375 1.203125 0.0234375 C 1.269531 0.0234375 1.339844 0.0234375 1.40625 0.0195312 C 1.476562 0.015625 1.539062 0.0078125 1.597656 0 L 1.597656 -0.519531 C 1.566406 -0.511719 1.53125 -0.507812 1.496094 -0.503906 C 1.460938 -0.5 1.425781 -0.5 1.386719 -0.5 C 1.273438 -0.5 1.199219 -0.519531 1.160156 -0.558594 C 1.125 -0.59375 1.105469 -0.671875 1.105469 -0.785156 L 1.105469 -1.992188 L 1.597656 -1.992188 L 1.597656 -2.441406 Z "/>
</g>
</g>
</defs>
<g fill="rgb(100%, 100%, 100%)" fill-opacity="1">
<use xlink:href="#glyph-0-0" x="30" y="24.604492"/>
<use xlink:href="#glyph-0-1" x="33" y="24.604492"/>
<use xlink:href="#glyph-0-2" x="36" y="24.604492"/>
<use xlink:href="#glyph-0-3" x="39" y="24.604492"/>
<use xlink:href="#glyph-0-1" x="41" y="24.604492"/>
<use xlink:href="#glyph-0-4" x="44" y="24.604492"/>
</g>
</svg>
